Abel, son of a murdered government official escapes into the Venezuelan interior bent on revenge. Beyond the jungle in a dense forest, Abel finds an ethereal, innocent girl who has bonded completely with nature, although raised solely by her mysterious grandfather. Eventually, Abel must try and save the girl from her grandfather's duplicity and the superstitions of menacing natives while coming to terms with his own beliefs. 

General
Complete name : Green.Mansions.1959.Mel.Ferrer/GreenMansions.1959.Mel.Ferrer.avi
Format : AVI
Format/Info : Audio Video Interleave
File size : 1.07 GiB
Duration : 1h 44mn
Overall bit rate : 1 463 Kbps
Writing application : VirtualDubMod 1.5.10.2 (build 2540/release)
Writing library : VirtualDubMod build 2540/release

Video
ID : 0
Format : MPEG-4 Visual
Format profile : Advanced Simple@L5
Format settings, BVOP : 1
Format settings, QPel : No
Format settings, GMC : No warppoints
Format settings, Matrix : Default (MPEG)
Codec ID : XVID
Codec ID/Hint : XviD
Duration : 1h 44mn
Bit rate : 1 390 Kbps
Width : 640 pixels
Height : 272 pixels
Display aspect ratio : 2.35:1
Frame rate : 23.976 fps
Color space : YUV
Chroma subsampling : 4:2:0
Bit depth : 8 bits
Scan type : Progressive
Compression mode : Lossy
Bits/(Pixel*Frame) : 0.333
Stream size : 1.01 GiB (95%)
Writing library : XviD 1.1.2 (UTC 2006-11-01)

Audio
ID : 1
Format : MPEG Audio
Format version : Version 1
Format profile : Layer 3
Codec ID : 55
Codec ID/Hint : MP3
Duration : 1h 44mn
Bit rate mode : Variable
Bit rate : 60.3 Kbps
Channel(s) : 1 channel
Sampling rate : 48.0 KHz
Compression mode : Lossy
Stream size : 45.0 MiB (4%)
Alignment : Aligned on interleaves
Interleave, duration : 24 ms (0.58 video frame)
Interleave, preload duration : 432 ms
